# xmcd
#
# Track frame offsets:
#	150
#	25407
#	47741
#	76508
#	102825
#	126121
#	145690
#	162346
#	188635
#	218597
#
# Disc length: 3340 seconds
#
# Revision: 0
# Processed by: cddbd v1.5.2PL0 Copyright (c) Steve Scherf et al.
# Submitted via: EZCDAudioConverter 8.0.2.1
#
DISCID=780d0a0a
DTITLE=Mỹ Linh - st. Phú Quang. Vol 01. Cho Một Người Tình Xa
DYEAR=1996
DGENRE=World Pop
TTITLE0=Em ơi Hà Nội phố
TTITLE1=Nỗi nhớ mùa đông
TTITLE2=Chiều đông Mátxcơva
TTITLE3=Đâu phải bởi mùa thu
TTITLE4=Gửi đôi mắt
TTITLE5=THương lắm tóc dài ơi
TTITLE6=mây xưa
TTITLE7=Lời tình muộn
TTITLE8=Lãng đãng chiều đông Hà Nội
TTITLE9=Cho Một Người Tình Xa
EXTD=
EXTT0=
EXTT1=
EXTT2=
EXTT3=
EXTT4=
EXTT5=
EXTT6=
EXTT7=
EXTT8=
EXTT9=
PLAYORDER=
